{"title":"Everything Put Together 2000 DVDRip ReRip XviD titler","uid":8590640,"size":855742878,"categoryP":"video","categoryS":"movies","magnet":"?xt=urn:btih:cef5594f744eea7031372c881e7790e9f339b714&amp;dn=Everything+Put+Together+2000+DVDRip+ReRip+XviD+titler&amp;tr=udp%3A%2F%2Ftracker.openbittorrent.com%3A80&amp;tr=udp%3A%2F%2Fopen.demonii.com%3A1337&amp;tr=udp%3A%2F%2Ftracker.coppersurfer.tk%3A6969&amp;tr=udp%3A%2F%2Fexodus.desync.com%3A6969","seeders":1,"leechers":2,"uploader":"movieZ.freak","files":4,"time":1371634233,"description":"SOURCE: Everything put together (Tutto sommato) (2000) DVD5 Copia 1:1 Ita Eng\n\n  &lt;a href=&quot;\nhttp://www.imdb.com/title/tt0228277/&quot; rel=&quot;nofollow&quot; target=&quot;_NEW&quot;&gt;\nhttp://www.imdb.com/title/tt0228277/&lt;/a&gt;\n\n  &lt;a href=&quot;\nhttp://www.rottentomatoes.com/m/everything_put_together/&quot; rel=&quot;nofollow&quot; target=&quot;_NEW&quot;&gt;\nhttp://www.rottentomatoes.com/m/everything_put_together/&lt;/a&gt;\n\n\n- SAMPLE: Yes\n\n- SUBTITLES: English\n\n- LANGUAGE: English\n\n\nDIRECTOR: Marc Forster\n  &lt;a href=&quot;\nhttp://www.imdb.com/name/nm0286975/&quot; rel=&quot;nofollow&quot; target=&quot;_NEW&quot;&gt;\nhttp://www.imdb.com/name/nm0286975/&lt;/a&gt;\n\n\n\nNOTE: http://www.imdb.com/title/tt0228277/technical?ref_=tt_dt_spec\n\n\n\nCAST:\n---------\nRadha Mitchell, Megan Mullally, Louis Ferreira, Octavia Spencer, Mark Boone Junior, Alan Ruck, Amy Carlson\n\n\nPLOT:\n------\nMarc Forster directs this chilling psychological drama about a young mother trying to come to terms with the loss of her first born. Angie (Radha Mitchell) and her husband Russ (Justin Louis) live a quiet suburban life. At the film's opening, Angie, along with her best friends Judith (Catherine Lloyd Burns) and Barbie (Megan Mullally), who also happen to be pregnant, gleefully discuss morning sickness and baby showers. After her textbook delivery to a healthy boy, the doctor pulls Russ aside and whispers something in his ear. Angie's worst fears are confirmed when she learns that her child suddenly died, a victim of sudden infant death syndrome. In spite of loving support from her husband and friends, Angie quickly spirals into a deep depression and begins developing morbid obsessions, such as going to morgue to examine her baby, visiting the place where her child's toys are buried, and watching children at play in the park. Shot on digital video, the film features an intense emotionally immediacy. This film was screened at the 2000 Sundance Film Festival.\n\n\nGeneral\n--------------\nFormat : AVI\nFormat/Info : Audio Video Interleave\nFile size : 799 MiB\nDuration : 1h 26mn\nOverall bit rate : 1 298 Kbps\nWriting application : VirtualDubMod 1.5.10.3\nWriting library : VirtualDubMod build 2550\n\nVideo\n------------\nFormat : MPEG-4 Visual\nFormat profile : Advanced Simple@L5\nFormat settings, BVOP : 1\nFormat settings, QPel : No\nFormat settings, GMC : No warppoints\nFormat settings, Matrix : Custom\nCodec ID : XVID\nCodec ID/Hint : XviD\nDuration : 1h 26mn\nBit rate : 1 163 Kbps\nWidth : 640 pixels\nHeight : 368 pixels\nDisplay aspect ratio : 1.739\nFrame rate : 25.000 fps\nColor space : YUV\nChroma subsampling : 4:2:0\nBit depth : 8 bits\nScan type : Progressive\nCompression mode : Lossy\nBits/(Pixel*Frame) : 0.197\nStream size : 716 MiB (90%)\nWriting library : XviD 64\n\nAudio\n---------\nFormat : MPEG Audio\nFormat version : Version 1\nFormat profile : Layer 3\nMode : Joint stereo\nMode extension : MS Stereo\nCodec ID : 55\nCodec ID/Hint : MP3\nDuration : 1h 26mn\nBit rate mode : Constant\nBit rate : 128 Kbps\nChannel(s) : 2 channels\nSampling rate : 48.0 KHz\nCompression mode : Lossy\nStream size : 78.8 MiB (10%)\nAlignment : Aligned on interleaves\nInterleave, duration : 80 ms (2.00 video frames)\nInterleave, preload duration : 504 ms\nWriting library : LAME3.99r\nEncoding settings : -m j -V 4 -q 2 -lowpass 17 -b 128\nLanguage : English","torrent":{"xt":"urn:btih:cef5594f744eea7031372c881e7790e9f339b714","amp;dn":"Everything+Put+Together+2000+DVDRip+ReRip+XviD+titler","amp;tr":["udp%3A%2F%2Ftracker.openbittorrent.com%3A80","udp%3A%2F%2Fopen.demonii.com%3A1337","udp%3A%2F%2Ftracker.coppersurfer.tk%3A6969","udp%3A%2F%2Fexodus.desync.com%3A6969"],"infoHash":"cef5594f744eea7031372c881e7790e9f339b714","infoHashBuffer":{"type":"Buffer","data":[206,245,89,79,116,78,234,112,49,55,44,136,30,119,144,233,243,57,183,20]},"announce":[],"urlList":[]}}